<svg data-v-423bf9ae="" xmlns="http://www.w3.org/2000/svg" viewBox="0 0 447.2246691593436 60" class="font"><!----><!----><!----><g data-v-423bf9ae="" id="f0aaf9dc-d3b2-4291-91ea-a94c9b3abf72" fill="white" transform="matrix(3.7759596415120917,0,0,3.7759596415120917,-3.1718019040121135,-2.1145383023190334)"><path d="M9.04 5.42L5.82 5.42L3.32 7.92L3.32 0.56L0.84 0.56L0.84 12.60L3.32 12.60L3.32 9.73L6.19 12.60L9.38 12.60L5.63 8.85ZM9.88 12.60L12.36 12.60L12.36 8.54C12.36 7.83 13.09 7.14 13.83 7.14C14.63 7.14 15.12 7.83 15.12 8.54L15.12 12.60L17.60 12.60L17.60 7.87C17.60 5.87 15.76 5.21 14.45 5.21C13.66 5.21 12.95 5.61 12.39 6.17L12.36 6.17L12.36 5.42L9.88 5.42ZM18.62 9.02C18.62 11.23 20.36 12.81 22.95 12.81C25.42 12.81 27.23 11.23 27.23 9.02C27.23 6.78 25.33 5.21 22.95 5.21C20.52 5.21 18.62 6.78 18.62 9.02ZM21.25 9.02C21.25 8.02 21.99 7.32 22.93 7.32C23.86 7.32 24.60 8.02 24.60 9.02C24.60 10.00 23.90 10.70 22.93 10.70C21.92 10.70 21.25 10.00 21.25 9.02ZM32.73 12.60L34.38 8.89L36.04 12.60L37.72 12.60L41.57 5.42L38.71 5.42L36.96 9.30L35.24 5.42L33.53 5.42L31.81 9.30L30.06 5.42L27.20 5.42L31.05 12.60ZM42.13 12.60L44.60 12.60L44.60 0.56L42.13 0.56ZM53.55 9.35C53.56 9.27 53.56 9.11 53.56 9.02C53.56 6.50 51.90 5.21 49.71 5.21C47.54 5.21 45.77 6.92 45.77 9.02C45.77 11.10 47.54 12.81 49.71 12.81C51.31 12.81 52.63 12.29 53.44 10.93L51.65 10.04C51.04 10.68 50.69 10.84 49.90 10.84C49.27 10.84 48.34 10.46 48.34 9.35ZM48.41 7.98C48.45 7.32 48.93 6.82 49.78 6.82C50.51 6.82 51.03 7.22 51.14 7.98ZM54.21 9.02C54.21 11.12 55.68 12.81 57.78 12.81C58.76 12.81 59.60 12.38 60.13 11.79L60.16 11.79L60.16 12.60L62.61 12.60L62.61 0.56L60.13 0.56L60.13 6.10C59.54 5.53 58.74 5.21 57.78 5.21C55.68 5.21 54.21 6.92 54.21 9.02ZM56.84 9.02C56.84 8.02 57.58 7.32 58.52 7.32C59.44 7.32 60.19 8.02 60.19 9.02C60.19 10.00 59.49 10.70 58.52 10.70C57.51 10.70 56.84 10.00 56.84 9.02ZM63.97 14.36C64.72 16.11 66.44 16.45 67.94 16.45C70.39 16.45 72.17 15.20 72.17 12.80L72.17 5.42L69.69 5.42L69.69 6.06L69.65 6.06C69.06 5.52 68.29 5.21 67.34 5.21C65.24 5.21 63.77 6.92 63.77 9.02C63.77 11.12 65.24 12.81 67.34 12.81C68.32 12.81 69.16 12.67 69.69 12.08L69.69 12.61C69.69 13.89 68.63 14.29 67.94 14.29C66.86 14.29 66.26 13.80 66.00 13.37ZM66.40 9.02C66.40 8.02 67.14 7.32 68.08 7.32C69.01 7.32 69.75 8.02 69.75 9.02C69.75 10.00 69.05 10.70 68.08 10.70C67.07 10.70 66.40 10.00 66.40 9.02ZM81.05 9.35C81.06 9.27 81.06 9.11 81.06 9.02C81.06 6.50 79.39 5.21 77.21 5.21C75.04 5.21 73.26 6.92 73.26 9.02C73.26 11.10 75.04 12.81 77.21 12.81C78.81 12.81 80.12 12.29 80.93 10.93L79.14 10.04C78.54 10.68 78.19 10.84 77.39 10.84C76.76 10.84 75.84 10.46 75.84 9.35ZM75.91 7.98C75.95 7.32 76.43 6.82 77.28 6.82C78.01 6.82 78.53 7.22 78.64 7.98ZM94.44 9.02C94.44 6.92 92.97 5.21 90.87 5.21C89.91 5.21 89.11 5.53 88.52 6.10L88.52 0.56L86.04 0.56L86.04 12.60L88.49 12.60L88.49 11.79L88.52 11.79C89.05 12.38 89.89 12.81 90.87 12.81C92.97 12.81 94.44 11.12 94.44 9.02ZM91.81 9.02C91.81 10.00 91.14 10.70 90.13 10.70C89.17 10.70 88.47 10.00 88.47 9.02C88.47 8.02 89.21 7.32 90.13 7.32C91.07 7.32 91.81 8.02 91.81 9.02ZM95.09 9.02C95.09 11.12 96.56 12.81 98.66 12.81C99.64 12.81 100.48 12.38 101.01 11.79L101.04 11.79L101.04 12.60L103.49 12.60L103.49 5.42L101.01 5.42L101.01 6.10C100.42 5.53 99.62 5.21 98.66 5.21C96.56 5.21 95.09 6.92 95.09 9.02ZM97.72 9.02C97.72 8.02 98.46 7.32 99.40 7.32C100.32 7.32 101.07 8.02 101.07 9.02C101.07 10.00 100.37 10.70 99.40 10.70C98.39 10.70 97.72 10.00 97.72 9.02ZM108.23 5.21C106.34 5.21 105.10 6.05 105.10 7.52C105.10 8.60 105.83 9.10 106.55 9.48C107.37 9.90 108.15 9.94 108.15 10.46C108.15 10.93 107.73 10.98 107.38 10.98C106.58 10.98 105.60 10.15 105.60 10.15L104.59 11.84C104.59 11.84 105.63 12.81 107.37 12.81C108.84 12.81 110.77 12.47 110.77 10.36C110.77 8.89 109.54 8.36 108.58 8.06C107.97 7.87 107.46 7.76 107.46 7.38C107.46 7.04 107.69 6.94 108.23 6.94C108.99 6.94 109.83 7.39 109.83 7.39L110.64 5.77C110.64 5.77 109.62 5.21 108.23 5.21ZM119.27 9.35C119.28 9.27 119.28 9.11 119.28 9.02C119.28 6.50 117.61 5.21 115.43 5.21C113.26 5.21 111.48 6.92 111.48 9.02C111.48 11.10 113.26 12.81 115.43 12.81C117.03 12.81 118.34 12.29 119.15 10.93L117.36 10.04C116.76 10.68 116.41 10.84 115.61 10.84C114.98 10.84 114.06 10.46 114.06 9.35ZM114.13 7.98C114.17 7.32 114.65 6.82 115.50 6.82C116.23 6.82 116.75 7.22 116.86 7.98Z"></path></g><!----><!----></svg>